<svg width="250" height="250" viewBox="0 0 250 250" fill="none" xmlns="http://www.w3.org/2000/svg">
<path d="M14.393 207.886L22.193 190.386H26.193L34.018 207.886H29.768L23.368 192.436H24.968L18.543 207.886H14.393ZM18.293 204.136L19.368 201.061H28.368L29.468 204.136H18.293ZM34.0951 207.886L41.8951 190.386H45.8951L53.7201 207.886H49.4701L43.0701 192.436H44.6701L38.2451 207.886H34.0951ZM37.9951 204.136L39.0701 201.061H48.0701L49.1701 204.136H37.9951ZM55.5357 207.886V190.386H59.5857V207.886H55.5357ZM63.7388 207.886V190.386H71.6888C73.5888 190.386 75.2639 190.753 76.7139 191.486C78.1638 192.203 79.2972 193.211 80.1138 194.511C80.9305 195.811 81.3389 197.353 81.3389 199.136C81.3389 200.903 80.9305 202.445 80.1138 203.761C79.2972 205.061 78.1638 206.078 76.7139 206.811C75.2639 207.528 73.5888 207.886 71.6888 207.886H63.7388ZM67.7888 204.561H71.4888C72.6555 204.561 73.6638 204.345 74.5138 203.911C75.3805 203.461 76.0472 202.828 76.5138 202.011C76.9972 201.195 77.2388 200.236 77.2388 199.136C77.2388 198.02 76.9972 197.061 76.5138 196.261C76.0472 195.445 75.3805 194.82 74.5138 194.386C73.6638 193.936 72.6555 193.711 71.4888 193.711H67.7888V204.561ZM81.849 207.886L89.649 190.386H93.649L101.474 207.886H97.224L90.824 192.436H92.424L85.999 207.886H81.849ZM85.749 204.136L86.824 201.061H95.824L96.924 204.136H85.749ZM103.29 207.886V190.386H110.865C112.431 190.386 113.781 190.645 114.915 191.161C116.048 191.661 116.923 192.386 117.54 193.336C118.156 194.286 118.465 195.42 118.465 196.736C118.465 198.036 118.156 199.161 117.54 200.111C116.923 201.045 116.048 201.761 114.915 202.261C113.781 202.761 112.431 203.011 110.865 203.011H105.54L107.34 201.236V207.886H103.29ZM114.415 207.886L110.04 201.536H114.365L118.79 207.886H114.415ZM107.34 201.686L105.54 199.786H110.64C111.89 199.786 112.823 199.52 113.44 198.986C114.056 198.436 114.365 197.686 114.365 196.736C114.365 195.77 114.056 195.02 113.44 194.486C112.823 193.953 111.89 193.686 110.64 193.686H105.54L107.34 191.761V201.686ZM130.173 208.186C128.79 208.186 127.507 207.961 126.323 207.511C125.157 207.061 124.14 206.428 123.273 205.611C122.423 204.795 121.757 203.836 121.273 202.736C120.807 201.636 120.573 200.436 120.573 199.136C120.573 197.836 120.807 196.636 121.273 195.536C121.757 194.436 122.432 193.478 123.298 192.661C124.165 191.845 125.182 191.211 126.348 190.761C127.515 190.311 128.782 190.086 130.148 190.086C131.532 190.086 132.798 190.311 133.948 190.761C135.115 191.211 136.123 191.845 136.973 192.661C137.84 193.478 138.515 194.436 138.998 195.536C139.482 196.62 139.723 197.82 139.723 199.136C139.723 200.436 139.482 201.645 138.998 202.761C138.515 203.861 137.84 204.82 136.973 205.636C136.123 206.436 135.115 207.061 133.948 207.511C132.798 207.961 131.54 208.186 130.173 208.186ZM130.148 204.736C130.932 204.736 131.648 204.603 132.298 204.336C132.965 204.07 133.548 203.686 134.048 203.186C134.548 202.686 134.932 202.095 135.198 201.411C135.482 200.728 135.623 199.97 135.623 199.136C135.623 198.303 135.482 197.545 135.198 196.861C134.932 196.178 134.548 195.586 134.048 195.086C133.565 194.586 132.99 194.203 132.323 193.936C131.657 193.67 130.932 193.536 130.148 193.536C129.365 193.536 128.64 193.67 127.973 193.936C127.323 194.203 126.748 194.586 126.248 195.086C125.748 195.586 125.357 196.178 125.073 196.861C124.807 197.545 124.673 198.303 124.673 199.136C124.673 199.953 124.807 200.711 125.073 201.411C125.357 202.095 125.74 202.686 126.223 203.186C126.723 203.686 127.307 204.07 127.973 204.336C128.64 204.603 129.365 204.736 130.148 204.736ZM147.456 207.886L139.906 190.386H144.281L150.881 205.886H148.306L155.006 190.386H159.031L151.456 207.886H147.456Z" fill="white"/>
<path d="M123.16 0V0C134.347 7.14344 138.436 22.4728 132.294 34.2391L58.2725 176.043C52.1305 187.809 38.0828 191.557 26.8962 184.414V184.414L123.16 0Z" fill="white"/>
<path d="M124.89 54.283C118.366 42.0054 122.527 25.9094 134.184 18.3317V18.3317L250 236.279V236.279C238.343 243.857 223.604 240.047 217.08 227.769L124.89 54.283Z" fill="white"/>
<path d="M0 239.294C0 225.007 11.5818 213.425 25.8687 213.425H207.044C221.331 213.425 232.913 225.007 232.913 239.294V239.294H0V239.294Z" fill="white"/>
</svg>
